<mxfile host="Electron" modified="2024-01-20T22:32:13.286Z" agent="Mozilla/5.0 (Macintosh; Intel Mac OS X 10_15_7) AppleWebKit/537.36 (KHTML, like Gecko) draw.io/22.1.21 Chrome/120.0.6099.109 Electron/28.1.0 Safari/537.36" etag="vI63jf-VZhwLIvvvGYWo" version="22.1.21" type="device">
  <diagram name="Page-1" id="hoCVPFIHtCYCNbDTjegN">
    <mxGraphModel dx="1207" dy="874" grid="1" gridSize="10" guides="1" tooltips="1" connect="1" arrows="1" fold="1" page="1" pageScale="1" pageWidth="850" pageHeight="1100" math="0" shadow="0">
      <root>
        <mxCell id="0" />
        <mxCell id="1" parent="0" />
        <mxCell id="GsgR1pGMC72x6-u9tPVT-1" value="App" style="rounded=1;whiteSpace=wrap;html=1;" vertex="1" parent="1">
          <mxGeometry x="360" y="40" width="120" height="60" as="geometry" />
        </mxCell>
        <mxCell id="GsgR1pGMC72x6-u9tPVT-2" value="" style="endArrow=none;html=1;rounded=0;" edge="1" parent="1">
          <mxGeometry width="50" height="50" relative="1" as="geometry">
            <mxPoint x="240" y="160" as="sourcePoint" />
            <mxPoint x="600" y="160" as="targetPoint" />
          </mxGeometry>
        </mxCell>
        <mxCell id="GsgR1pGMC72x6-u9tPVT-3" value="" style="endArrow=classic;html=1;rounded=0;exitX=0.5;exitY=1;exitDx=0;exitDy=0;" edge="1" parent="1" source="GsgR1pGMC72x6-u9tPVT-1">
          <mxGeometry width="50" height="50" relative="1" as="geometry">
            <mxPoint x="400" y="410" as="sourcePoint" />
            <mxPoint x="420" y="160" as="targetPoint" />
          </mxGeometry>
        </mxCell>
        <mxCell id="GsgR1pGMC72x6-u9tPVT-13" value="" style="edgeStyle=orthogonalEdgeStyle;rounded=0;orthogonalLoop=1;jettySize=auto;html=1;" edge="1" parent="1" source="GsgR1pGMC72x6-u9tPVT-4" target="GsgR1pGMC72x6-u9tPVT-12">
          <mxGeometry relative="1" as="geometry" />
        </mxCell>
        <mxCell id="GsgR1pGMC72x6-u9tPVT-4" value="Home&lt;br&gt;client route: &quot;/&quot;" style="rounded=1;whiteSpace=wrap;html=1;" vertex="1" parent="1">
          <mxGeometry x="180" y="200" width="120" height="60" as="geometry" />
        </mxCell>
        <mxCell id="GsgR1pGMC72x6-u9tPVT-5" value="" style="endArrow=classic;html=1;rounded=0;entryX=0.5;entryY=0;entryDx=0;entryDy=0;" edge="1" parent="1" target="GsgR1pGMC72x6-u9tPVT-4">
          <mxGeometry width="50" height="50" relative="1" as="geometry">
            <mxPoint x="240" y="160" as="sourcePoint" />
            <mxPoint x="420" y="200" as="targetPoint" />
          </mxGeometry>
        </mxCell>
        <mxCell id="GsgR1pGMC72x6-u9tPVT-12" value="ImageGallery&lt;br&gt;&lt;font style=&quot;font-size: 10px;&quot;&gt;state images: fetch /images&lt;/font&gt;" style="whiteSpace=wrap;html=1;rounded=1;" vertex="1" parent="1">
          <mxGeometry x="180" y="290" width="120" height="60" as="geometry" />
        </mxCell>
        <mxCell id="GsgR1pGMC72x6-u9tPVT-18" value="" style="edgeStyle=orthogonalEdgeStyle;rounded=0;orthogonalLoop=1;jettySize=auto;html=1;" edge="1" parent="1" source="GsgR1pGMC72x6-u9tPVT-14">
          <mxGeometry relative="1" as="geometry">
            <mxPoint x="420.03999999999996" y="290" as="targetPoint" />
          </mxGeometry>
        </mxCell>
        <mxCell id="GsgR1pGMC72x6-u9tPVT-14" value="Parks:&lt;br&gt;client route: &quot;/parks&quot;&lt;br style=&quot;font-size: 11px;&quot;&gt;&lt;font size=&quot;1&quot;&gt;state parks: fetch /parks&lt;/font&gt;" style="rounded=1;whiteSpace=wrap;html=1;" vertex="1" parent="1">
          <mxGeometry x="360" y="200" width="120" height="60" as="geometry" />
        </mxCell>
        <mxCell id="GsgR1pGMC72x6-u9tPVT-15" value="Contact:&lt;br&gt;client route: &quot;/contact&quot;" style="rounded=1;whiteSpace=wrap;html=1;" vertex="1" parent="1">
          <mxGeometry x="540" y="200" width="120" height="60" as="geometry" />
        </mxCell>
        <mxCell id="GsgR1pGMC72x6-u9tPVT-16" value="" style="endArrow=classic;html=1;rounded=0;entryX=0.5;entryY=0;entryDx=0;entryDy=0;" edge="1" parent="1" target="GsgR1pGMC72x6-u9tPVT-14">
          <mxGeometry width="50" height="50" relative="1" as="geometry">
            <mxPoint x="420" y="160" as="sourcePoint" />
            <mxPoint x="430" y="170" as="targetPoint" />
          </mxGeometry>
        </mxCell>
        <mxCell id="GsgR1pGMC72x6-u9tPVT-19" value="ParkCard" style="ellipse;whiteSpace=wrap;html=1;" vertex="1" parent="1">
          <mxGeometry x="380" y="290" width="80" height="50" as="geometry" />
        </mxCell>
        <mxCell id="GsgR1pGMC72x6-u9tPVT-20" value="ParkCard" style="ellipse;whiteSpace=wrap;html=1;" vertex="1" parent="1">
          <mxGeometry x="390" y="300" width="80" height="50" as="geometry" />
        </mxCell>
        <mxCell id="GsgR1pGMC72x6-u9tPVT-21" value="ParkCard" style="ellipse;whiteSpace=wrap;html=1;" vertex="1" parent="1">
          <mxGeometry x="400" y="310" width="80" height="50" as="geometry" />
        </mxCell>
        <mxCell id="GsgR1pGMC72x6-u9tPVT-22" value="ParkCard" style="ellipse;whiteSpace=wrap;html=1;" vertex="1" parent="1">
          <mxGeometry x="410" y="320" width="80" height="50" as="geometry" />
        </mxCell>
        <mxCell id="GsgR1pGMC72x6-u9tPVT-23" value="ParkCard" style="ellipse;whiteSpace=wrap;html=1;" vertex="1" parent="1">
          <mxGeometry x="420" y="330" width="80" height="50" as="geometry" />
        </mxCell>
        <mxCell id="GsgR1pGMC72x6-u9tPVT-24" value="ParkCard" style="ellipse;whiteSpace=wrap;html=1;" vertex="1" parent="1">
          <mxGeometry x="430" y="340" width="80" height="50" as="geometry" />
        </mxCell>
        <mxCell id="GsgR1pGMC72x6-u9tPVT-25" value="ParkCard&lt;br style=&quot;font-size: 11px;&quot;&gt;&lt;font size=&quot;1&quot;&gt;prop: park&lt;/font&gt;" style="ellipse;whiteSpace=wrap;html=1;" vertex="1" parent="1">
          <mxGeometry x="440" y="350" width="80" height="50" as="geometry" />
        </mxCell>
        <mxCell id="GsgR1pGMC72x6-u9tPVT-26" value="" style="endArrow=classic;html=1;rounded=0;entryX=0.5;entryY=0;entryDx=0;entryDy=0;" edge="1" parent="1" target="GsgR1pGMC72x6-u9tPVT-15">
          <mxGeometry width="50" height="50" relative="1" as="geometry">
            <mxPoint x="600" y="160" as="sourcePoint" />
            <mxPoint x="430" y="170" as="targetPoint" />
          </mxGeometry>
        </mxCell>
        <mxCell id="GsgR1pGMC72x6-u9tPVT-27" value="" style="endArrow=classic;html=1;rounded=0;exitX=0.5;exitY=1;exitDx=0;exitDy=0;" edge="1" parent="1" source="GsgR1pGMC72x6-u9tPVT-25">
          <mxGeometry width="50" height="50" relative="1" as="geometry">
            <mxPoint x="380" y="220" as="sourcePoint" />
            <mxPoint x="480" y="430" as="targetPoint" />
          </mxGeometry>
        </mxCell>
        <mxCell id="GsgR1pGMC72x6-u9tPVT-28" value="ParkImage&lt;br style=&quot;font-size: 11px;&quot;&gt;&lt;font size=&quot;1&quot;&gt;prop: imageObj&lt;/font&gt;" style="rounded=1;whiteSpace=wrap;html=1;" vertex="1" parent="1">
          <mxGeometry x="340" y="560" width="120" height="60" as="geometry" />
        </mxCell>
        <mxCell id="GsgR1pGMC72x6-u9tPVT-47" value="" style="edgeStyle=orthogonalEdgeStyle;rounded=0;orthogonalLoop=1;jettySize=auto;html=1;" edge="1" parent="1" source="GsgR1pGMC72x6-u9tPVT-29" target="GsgR1pGMC72x6-u9tPVT-46">
          <mxGeometry relative="1" as="geometry" />
        </mxCell>
        <mxCell id="GsgR1pGMC72x6-u9tPVT-29" value="ParkInfo&lt;br&gt;props: park&lt;br style=&quot;font-size: 11px;&quot;&gt;&lt;font size=&quot;1&quot;&gt;state reviews: park.reviews&lt;/font&gt;" style="rounded=1;whiteSpace=wrap;html=1;" vertex="1" parent="1">
          <mxGeometry x="500" y="560" width="120" height="60" as="geometry" />
        </mxCell>
        <mxCell id="GsgR1pGMC72x6-u9tPVT-30" value="" style="endArrow=none;html=1;rounded=0;" edge="1" parent="1">
          <mxGeometry width="50" height="50" relative="1" as="geometry">
            <mxPoint x="400" y="530" as="sourcePoint" />
            <mxPoint x="560" y="530" as="targetPoint" />
          </mxGeometry>
        </mxCell>
        <mxCell id="GsgR1pGMC72x6-u9tPVT-31" value="" style="endArrow=classic;html=1;rounded=0;entryX=0.5;entryY=0;entryDx=0;entryDy=0;" edge="1" parent="1" target="GsgR1pGMC72x6-u9tPVT-28">
          <mxGeometry width="50" height="50" relative="1" as="geometry">
            <mxPoint x="400" y="530" as="sourcePoint" />
            <mxPoint x="430" y="380" as="targetPoint" />
          </mxGeometry>
        </mxCell>
        <mxCell id="GsgR1pGMC72x6-u9tPVT-32" value="" style="endArrow=classic;html=1;rounded=0;entryX=0.5;entryY=0;entryDx=0;entryDy=0;" edge="1" parent="1" target="GsgR1pGMC72x6-u9tPVT-29">
          <mxGeometry width="50" height="50" relative="1" as="geometry">
            <mxPoint x="560" y="530" as="sourcePoint" />
            <mxPoint x="430" y="380" as="targetPoint" />
          </mxGeometry>
        </mxCell>
        <mxCell id="GsgR1pGMC72x6-u9tPVT-36" value="Image" style="ellipse;whiteSpace=wrap;html=1;" vertex="1" parent="1">
          <mxGeometry x="200" y="370" width="80" height="50" as="geometry" />
        </mxCell>
        <mxCell id="GsgR1pGMC72x6-u9tPVT-37" value="Image" style="ellipse;whiteSpace=wrap;html=1;" vertex="1" parent="1">
          <mxGeometry x="210" y="380" width="80" height="50" as="geometry" />
        </mxCell>
        <mxCell id="GsgR1pGMC72x6-u9tPVT-38" value="Image" style="ellipse;whiteSpace=wrap;html=1;" vertex="1" parent="1">
          <mxGeometry x="220" y="390" width="80" height="50" as="geometry" />
        </mxCell>
        <mxCell id="GsgR1pGMC72x6-u9tPVT-39" value="Image" style="ellipse;whiteSpace=wrap;html=1;" vertex="1" parent="1">
          <mxGeometry x="230" y="400" width="80" height="50" as="geometry" />
        </mxCell>
        <mxCell id="GsgR1pGMC72x6-u9tPVT-40" value="ParkImage&lt;br&gt;&lt;font style=&quot;font-size: 10px;&quot;&gt;prop: imageObj&lt;/font&gt;" style="ellipse;whiteSpace=wrap;html=1;" vertex="1" parent="1">
          <mxGeometry x="240" y="410" width="80" height="50" as="geometry" />
        </mxCell>
        <mxCell id="GsgR1pGMC72x6-u9tPVT-41" value="" style="endArrow=classic;html=1;rounded=0;exitX=0.5;exitY=1;exitDx=0;exitDy=0;entryX=0.5;entryY=0;entryDx=0;entryDy=0;" edge="1" parent="1" source="GsgR1pGMC72x6-u9tPVT-12" target="GsgR1pGMC72x6-u9tPVT-36">
          <mxGeometry width="50" height="50" relative="1" as="geometry">
            <mxPoint x="380" y="330" as="sourcePoint" />
            <mxPoint x="430" y="280" as="targetPoint" />
          </mxGeometry>
        </mxCell>
        <mxCell id="GsgR1pGMC72x6-u9tPVT-43" value="ParkDetails:&lt;br&gt;client route: &quot;/parks/:id&quot;&lt;br style=&quot;font-size: 10px;&quot;&gt;&lt;font size=&quot;1&quot;&gt;prop: park&lt;/font&gt;" style="rounded=1;whiteSpace=wrap;html=1;" vertex="1" parent="1">
          <mxGeometry x="414.5" y="430" width="131" height="60" as="geometry" />
        </mxCell>
        <mxCell id="GsgR1pGMC72x6-u9tPVT-45" value="" style="endArrow=classic;html=1;rounded=0;exitX=0.5;exitY=1;exitDx=0;exitDy=0;" edge="1" parent="1" source="GsgR1pGMC72x6-u9tPVT-43">
          <mxGeometry width="50" height="50" relative="1" as="geometry">
            <mxPoint x="430" y="460" as="sourcePoint" />
            <mxPoint x="480" y="530" as="targetPoint" />
          </mxGeometry>
        </mxCell>
        <mxCell id="GsgR1pGMC72x6-u9tPVT-46" value="ParkReviewForm&lt;br style=&quot;font-size: 11px;&quot;&gt;&lt;font size=&quot;1&quot; style=&quot;&quot;&gt;props:&lt;/font&gt;&lt;font style=&quot;font-size: 11px;&quot;&gt; &lt;/font&gt;&lt;font style=&quot;&quot;&gt;&lt;font style=&quot;font-size: 10px;&quot;&gt;onAddReview&lt;/font&gt;&lt;br&gt;&lt;/font&gt;&lt;font size=&quot;1&quot;&gt;state: formData&lt;/font&gt;" style="whiteSpace=wrap;html=1;rounded=1;" vertex="1" parent="1">
          <mxGeometry x="500" y="650" width="120" height="60" as="geometry" />
        </mxCell>
      </root>
    </mxGraphModel>
  </diagram>
</mxfile>
